<?xml version="1.0" encoding="UTF-8" standalone="no"?>
<svg
   xmlns="http://www.w3.org/2000/svg"
   width="84mm"
   height="27mm"
   viewBox="0 0 84 27"
   version="1.1"
   id="svg8">
  <defs
     id="defs2">
    <rect
       id="rect136"
       height="29.104168"
       width="108.47917"
       y="0"
       x="-2.6458333" />
    <rect
       id="rect64"
       height="42.333332"
       width="119.0625"
       y="60.854168"
       x="7.9375" />
    <rect
       id="rect58"
       height="42.333332"
       width="113.77083"
       y="68.791664"
       x="10.583333" />
    <rect
       id="rect52"
       height="60.854168"
       width="105.83333"
       y="58.208332"
       x="15.875" />
    <rect
       id="rect46"
       height="82.020836"
       width="111.125"
       y="66.145836"
       x="7.9375" />
    <rect
       id="rect36"
       height="58.208332"
       width="74.083336"
       y="66.145836"
       x="7.9375" />
    <rect
       id="rect30"
       height="34.395832"
       width="97.895836"
       y="60.854168"
       x="5.2916665" />
  </defs>
  <sodipodi:namedview
     id="base"
     pagecolor="#ffffff"
     bordercolor="#666666"
     borderopacity="1.0"
     showgrid="true"
   >
  </sodipodi:namedview>
  <metadata
     id="metadata5">
    <rdf:RDF>
      <cc:Work>
        <dc:format>image/svg+xml</dc:format>
        <dc:type/>
        <dc:title></dc:title>
      </cc:Work>
    </rdf:RDF>
  </metadata>
  <g
     id="layer1">
    <text
       id="text1439"
       y="78.693192"
       x="61.830017"
       style="font-size:10.5833px;line-height:1.25;font-family:Poppins;text-decoration:none;text-decoration-line:none;text-decoration-color:#000000;letter-spacing:0px;word-spacing:0px;white-space:pre;shape-inside:url(#rect182);fill:#000000;stroke-width:1;stop-color:#000000;"
       xml:space="preserve" />
    <path
       id="path30"
       style="fill:#ff6600;stroke:#000000;stroke-width:0.0162567;stroke-opacity:0"
       d="M 75.053515,-0.1564575 V 1.585287 h -0.35199 v -1.7339904 a 2.0289071,2.1100632 0 0 0 -0.351946,0.072886 V 1.5852913 H 73.997632 V 0.069712 A 2.0289071,2.1100632 0 0 0 72.891217,1.9490825 2.0289071,2.1100632 0 0 0 74.920139,4.059136 2.0289071,2.1100632 0 0 0 76.949052,1.9490825 2.0289071,2.1100632 0 0 0 75.757417,0.0270968 V 1.5852913 H 75.40547 v -1.6850274 a 2.0289071,2.1100632 0 0 0 -0.351955,-0.056717 z" />
    <text
       style="font-size:4.93889px;line-height:1.25;font-family:Poppins;text-decoration:none;text-decoration-line:none;text-decoration-color:#000000;letter-spacing:0px;word-spacing:0px;white-space:pre;shape-inside:url(#rect36);fill:#000000;stroke-width:1;stop-color:#000000;"
       id="text34"
       xml:space="preserve" />
    <text
       id="text42"
       y="84.666664"
       x="18.520834"
       style="font-size:4.9389px;line-height:1.25;font-family:Poppins;text-decoration:none;text-decoration-line:none;text-decoration-color:#000000;letter-spacing:0px;word-spacing:0px;white-space:pre;shape-inside:url(#rect182);fill:#000000;stroke-width:1;stop-color:#000000;"
       xml:space="preserve" />
    <text
       style="font-size:50.8px;line-height:1.25;font-family:Poppins;text-decoration:none;text-decoration-line:none;text-decoration-color:#000000;letter-spacing:0px;word-spacing:0px;white-space:pre;shape-inside:url(#rect52);fill:#000000;stroke-width:1;stop-color:#000000;"
       id="text50"
       xml:space="preserve" />
    <g
       style="font-size:25.4px;line-height:1.25;font-family:Poppins;text-decoration:none;text-decoration-line:none;text-decoration-color:#000000;letter-spacing:0px;word-spacing:0px;white-space:pre;shape-inside:url(#rect58);fill:#000000;stroke-width:1;stop-color:#000000"
       id="text56"
       transform="translate(-10.584117,-71.362765)"
       aria-label="Apelvil ">
      <path
         id="path177"
         d="m 23.029984,87.129815 h -7.5692 l -1.3716,3.8862 h -3.0988 l 6.604,-17.652999 h 3.3274 l 6.5786,17.652999 h -3.0988 z m -0.8128,-2.2352 -2.9718,-8.381999 -2.9718,8.381999 z"
         style="fill:#000000" />
      <path
         id="path179"
         d="m 37.676655,76.842816 q 1.8288,0 3.2512,0.863599 1.4478,0.8636 2.2606,2.4892 0.8128,1.6256 0.8128,3.81 0,2.2098 -0.8128,3.8354 -0.8128,1.6256 -2.2606,2.4892 -1.4224,0.8636 -3.2512,0.8636 -1.905,0 -3.2512,-0.9398 -1.3462,-0.9398 -1.8796,-2.4892 v 9.906 h -2.8956 V 77.020616 h 2.8956 v 3.251199 q 0.5334,-1.5494 1.8796,-2.4892 1.3462,-0.939799 3.2512,-0.939799 z m -0.889,2.539999 q -1.2192,0 -2.1844,0.5842 -0.9652,0.5588 -1.524,1.6256 -0.5588,1.0414 -0.5588,2.413 0,1.397 0.5588,2.4384 0.5588,1.0414 1.524,1.6256 0.9652,0.5588 2.1844,0.5588 1.9304,0 3.0988,-1.2192 1.1684,-1.2446 1.1684,-3.4036 0,-2.1336 -1.1684,-3.3782 -1.1684,-1.2446 -3.0988,-1.2446 z"
         style="fill:#000000" />
      <path
         id="path181"
         d="m 59.8199,83.345215 q 0,0.7112 -0.1016,1.2446 H 48.9487 q 0.0762,2.159 1.1938,3.2004 1.1176,1.0414 2.7686,1.0414 1.4478,0 2.4384,-0.7366 1.016,-0.7366 1.2446,-1.9558 h 3.0988 q -0.2794,1.4732 -1.1684,2.6162 -0.889,1.143 -2.3114,1.8034 -1.4224,0.635 -3.175,0.635 -2.032,0 -3.6068,-0.8636 -1.5494,-0.8636 -2.4384,-2.4892 -0.889,-1.6256 -0.889,-3.8354 0,-2.1844 0.889,-3.81 0.889,-1.6256 2.4384,-2.4892 1.5748,-0.863599 3.6068,-0.863599 2.0574,0 3.5814,0.863599 1.5494,0.8382 2.3622,2.3368 0.8382,1.4732 0.8382,3.302 z m -2.921,-0.0762 q 0.0508,-1.3716 -0.4826,-2.286 -0.508,-0.9398 -1.4224,-1.3716 -0.889,-0.4572 -1.9558,-0.4572 -1.7018,0 -2.8448,1.0414 -1.143,1.0414 -1.2446,3.0734 z"
         style="fill:#000000" />
      <path
         id="path183"
         d="m 65.48648,72.220016 v 18.795999 h -2.8956 V 72.220016 Z"
         style="fill:#000000" />
      <path
         id="path185"
         d="m 74.730888,88.018815 3.9624,-10.998199 h 3.0988 l -5.334,13.995399 h -3.5052 l -5.334,-13.995399 h 3.0988 z"
         style="fill:#000000" />
      <path
         d="m 307.03711,12.857422 c 0.001,0.0021 0.005,0.0058 0.006,0.0078 7.4e-4,-7.66e-4 10e-4,-0.0013 0.002,-0.002 -0.003,-0.0019 -0.005,-0.004 -0.008,-0.0059 z m -11.00195,2.904297 c -4.9e-4,0.0014 -0.001,0.0025 -0.002,0.0039 10e-4,-0.0016 0.002,-0.0021 0.004,-0.0039 -4.5e-4,3.5e-5 -10e-4,-4.1e-5 -0.002,0 z m 8.81054,3.414062 c -0.003,7.52e-4 -0.007,0.0012 -0.01,0.002 -2e-4,0.002 2e-4,0.0039 0,0.0059 0.003,-0.003 0.007,-0.0048 0.01,-0.0078 z m -7.82031,0.09961 c -0.0629,0.0075 -0.12588,0.02231 -0.18945,0.03711 -0.006,0.03255 -0.009,0.06446 -0.0176,0.09766 0.13457,-0.03825 0.26998,-0.07214 0.4043,-0.111328 -0.001,-0.0045 -0.003,-0.0092 -0.004,-0.01367 -0.0634,-0.0095 -0.12822,-0.01753 -0.19336,-0.0098 z m 0.16406,14.117187 v 52.896484 h 10.94336 V 33.392578 Z"
         transform="matrix(0.26458333,0,0,0.26458333,5.291669,68.185556)"
         style="fill:#000000;stroke:#000000;stroke-width:1.0015748;stroke-opacity:0"
         id="path187" />
      <path
         id="path189"
         d="m 93.218116,72.220016 v 18.795999 h -2.8956 V 72.220016 Z"
         style="fill:#000000" />
    </g>
    <text
       style="font-size:25.4px;line-height:1.25;font-family:Poppins;text-decoration:none;text-decoration-line:none;text-decoration-color:#000000;letter-spacing:0px;word-spacing:0px;white-space:pre;shape-inside:url(#rect64);fill:#000000;stroke-width:1;stop-color:#000000;"
       id="text62"
       xml:space="preserve" />
    <text
       style="font-size:25.4px;line-height:1.25;font-family:Poppins;text-decoration:none;text-decoration-line:none;text-decoration-color:#000000;letter-spacing:0px;word-spacing:0px;white-space:pre;shape-inside:url(#rect136);fill:#000000;stroke-width:1;stop-color:#000000;"
       id="text134"
       xml:space="preserve" />
  </g>
</svg>
