<?xml version="1.0" encoding="UTF-8" standalone="no"?>
<svg
   xmlns="http://www.w3.org/2000/svg"
   viewBox="0 0 1026 1026"
   height="1026"
   width="1026"
   id="svg62"
   version="1.1">
  <metadata
     id="metadata68">
    <rdf:RDF>
      <cc:Work>
        <dc:format>image/svg+xml</dc:format>
        <dc:type />
        <dc:title></dc:title>
      </cc:Work>
    </rdf:RDF>
  </metadata>
  <defs
     id="defs66" />
  <sodipodi:namedview
     showgrid="false"
     id="namedview64"
     guidetolerance="10"
     gridtolerance="10"
     objecttolerance="10"
     borderopacity="1"
     bordercolor="#666666"
     pagecolor="#ffffff" />
  <g
     id="g70">
    <path
       id="path74"
       d="M 465.51316,849.38888 C 405.07601,844.41177 361.09529,832.60853 312.88409,808.4273 283.70935,793.79417 250.29498,771.14527 230.63357,752.67632 l -4.54411,-4.26851 1.72192,-287.49078 1.72193,-287.49078 4.1114,-3.79615 c 5.00154,-4.61804 20.46764,-17.07476 27.95464,-22.51526 46.30916,-33.65106 102.50746,-57.709087 158.98276,-68.059197 83.23092,-15.25355 166.63124,-3.88942 242.17254,32.998447 66.50026,32.473 120.48518,81.37697 160.39381,145.2979 3.62468,5.80558 10.69387,18.759 15.70933,28.78538 12.55898,25.10663 19.5931,43.48123 27.911,72.90925 4.5257,16.01156 8.83122,39.17639 11.31985,60.90374 2.22572,19.43206 1.95719,64.01924 -0.50256,83.42442 -5.99162,47.27052 -17.45358,86.35633 -37.04963,126.34089 -20.37009,41.56394 -44.4358,75.01356 -76.99791,107.0215 -31.34138,30.80801 -62.62968,53.21805 -100.65438,72.09306 -27.0265,13.41564 -57.44822,24.55784 -81.86317,29.98306 -4.76844,1.05958 -11.48756,2.54691 -14.93139,3.30516 -10.69229,2.35421 -36.44167,5.88561 -50.60299,6.93995 -12.34635,0.91922 -40.55895,1.10579 -49.97355,0.33048 z M 358.95697,714.30612 c 2.47683,-2.22262 2.59628,-4.47968 0.38172,-7.21281 -1.25526,-1.5492 -3.22656,-2.23424 -7.92033,-2.75238 l -6.24911,-0.68983 -0.24122,-6.96622 c -0.28703,-8.28944 0.4536,-8.93237 7.26498,-6.30662 7.02399,2.70772 18.47249,2.36979 25.33239,-0.74775 6.72549,-3.05646 11.8451,-7.47425 15.19679,-13.11356 2.18035,-3.66846 2.60746,-5.49543 2.60263,-11.13264 -0.007,-8.24502 -1.65873,-12.38455 -7.40148,-18.55003 -9.29666,-9.98098 -21.80363,-12.81011 -35.31047,-7.98736 -5.98071,2.13547 -6.53667,2.18445 -8.00976,0.70563 -1.18314,-1.18776 -3.35174,-1.59117 -8.58592,-1.59722 -11.32498,-0.0131 -15.12201,2.25908 -13.66733,8.17858 0.42815,1.7423 1.67393,2.62702 5.1158,3.63308 l 4.54982,1.32992 -0.15673,26.16885 -0.15674,26.16885 -4.51624,1.3051 c -4.81788,1.39227 -6.24563,3.43449 -5.24573,7.50339 0.86531,3.52117 4.59461,4.26452 20.40976,4.06825 12.81394,-0.15902 14.8197,-0.40121 16.60717,-2.00523 z m -4.2995,-36.17804 c -9.14974,-4.53827 -12.09536,-14.06329 -6.56481,-21.22815 4.93379,-6.39176 8.04227,-7.89392 16.31535,-7.88437 6.76398,0.008 7.66816,0.24835 11.04584,2.93847 4.96143,3.95146 8.37415,10.88613 7.52038,15.28145 -2.02534,10.42671 -17.36188,16.32622 -28.31676,10.8926 z m -72.91989,15.02781 c 3.17881,-0.68105 7.23531,-1.98958 9.01444,-2.90785 3.1384,-1.61982 3.29787,-1.61011 5.35126,0.32591 1.69211,1.59538 3.35787,1.99585 8.30771,1.99729 8.79337,0.002 13.25266,-1.39839 14.02854,-4.40725 1.05684,-4.09834 -0.90687,-6.84638 -5.54879,-7.76509 l -4.13478,-0.81833 -0.39318,-14.83565 c -0.49053,-18.50932 -1.62002,-21.34846 -10.16579,-25.55336 -4.95689,-2.43901 -6.49568,-2.71723 -14.67723,-2.65373 -9.47609,0.0735 -18.52808,1.93141 -22.7414,4.66754 -3.17538,2.06208 -2.90784,6.72886 0.53108,9.26386 2.32819,1.71623 2.60802,1.71285 10.10213,-0.12192 4.23918,-1.03788 10.43302,-1.88901 13.76409,-1.89138 5.20089,-0.004 6.3974,0.33789 8.46957,2.41813 1.32719,1.33236 2.26672,3.15698 2.08785,4.05471 -0.28421,1.42649 -1.78795,1.63638 -11.92842,1.66499 -11.09911,0.0313 -11.87965,0.16767 -17.966,3.13846 -14.2459,6.95353 -18.23434,19.09033 -9.17112,27.90766 3.5124,3.41709 11.61249,6.75176 16.40429,6.75333 1.58736,8.8e-4 5.48695,-0.55626 8.66575,-1.23732 z m -13.87564,-12.33971 c -1.31859,-0.70281 -2.53301,-2.26184 -2.6987,-3.4645 -0.71461,-5.18685 6.61742,-8.776 17.68289,-8.65606 10.6743,0.1157 12.50207,0.73898 12.481,4.25609 -0.0149,2.48362 -0.68818,3.16639 -5.45312,5.52972 -6.50355,3.22565 -18.04405,4.44972 -22.01207,2.33475 z m 183.25454,12.372 c 10.41519,-1.79645 16.42955,-4.31457 17.90367,-7.49599 1.35827,-2.93141 0.72394,-4.81296 -2.28997,-6.79255 -2.13265,-1.40077 -3.08272,-1.32696 -12.80467,0.9948 -14.31392,3.41839 -24.46447,3.02073 -30.4563,-1.19316 -2.2759,-1.60058 -4.18587,-3.78246 -4.35123,-4.97068 l -0.29474,-2.11785 24.3583,0.0135 c 13.39705,0.008 24.96576,-0.36779 25.70822,-0.83375 1.9664,-1.23408 0.88419,-11.5462 -1.74604,-16.63764 -3.90581,-7.5606 -7.20318,-10.78831 -14.51582,-14.20918 -6.33282,-2.96248 -7.83879,-3.27932 -15.68393,-3.29964 -7.87688,-0.0204 -9.27228,0.26738 -15.10806,3.11586 -7.64167,3.72996 -14.32635,10.59445 -16.19945,16.63521 -3.26344,10.52459 -0.0704,23.50232 7.28193,29.59715 9.59887,7.95706 21.15541,10.13354 38.19809,7.19397 z m -31.57979,-34.0014 c -0.86629,-1.41178 1.54125,-4.62323 5.51889,-7.36174 4.78024,-3.29107 14.31653,-4.16915 20.32144,-1.87114 4.97837,1.90516 9.76132,6.56494 8.92723,8.69732 -0.49885,1.27534 -3.05393,1.49209 -17.39372,1.47552 -9.69309,-0.0112 -17.04809,-0.40912 -17.37384,-0.93996 z m 121.38486,32.4502 c 3.17913,-1.62105 4.36262,-3.78594 3.65154,-6.67955 -0.82632,-3.36258 -2.53326,-3.93329 -13.59128,-4.54421 l -9.6172,-0.53132 -0.0648,-31.56182 c -0.0438,-21.33984 -0.40773,-31.97705 -1.12363,-32.84389 -1.32627,-1.60594 -21.18991,-1.81607 -25.6594,-0.27145 -3.25935,1.12642 -4.5433,3.58839 -3.68752,7.07085 0.71382,2.90472 2.52818,3.63736 10.65183,4.30117 l 6.73098,0.55001 -0.15794,26.36978 -0.15795,26.36979 -9.95219,0.46796 c -8.99627,0.42301 -10.1298,0.68519 -11.80132,2.7296 -1.01701,1.24391 -1.85214,2.76509 -1.85582,3.3804 -0.0122,2.033 2.8356,5.2463 5.0252,5.67021 1.1845,0.22932 12.75971,0.48159 25.7227,0.56062 17.0188,0.10375 24.21322,-0.18478 25.88682,-1.03815 z m 67.68912,-19.78976 c 10.24304,-20.36038 10.3975,-20.59736 13.89418,-21.31657 6.19231,-1.27365 7.42227,-2.35972 7.11631,-6.28371 -0.41321,-5.2993 -2.6946,-6.05811 -17.31254,-5.7583 -11.18865,0.22948 -12.42908,0.43499 -14.39737,2.38546 -2.885,2.85887 -1.62148,6.88511 2.77015,8.82713 2.11774,0.93649 3.08357,2.00841 3.02716,3.35967 -0.13094,3.13626 -9.99858,22.06196 -11.66586,22.37463 -1.07023,0.20069 -3.05974,-2.9925 -6.90837,-11.088 -2.97289,-6.25343 -5.40336,-11.68801 -5.40103,-12.07687 0.002,-0.38884 1.53861,-1.34265 3.41397,-2.11958 3.85662,-1.59771 5.84021,-5.24869 4.36357,-8.03158 -1.47868,-2.78675 -6.2675,-3.88094 -17.03959,-3.89339 -12.61403,-0.0146 -15.62812,1.30631 -15.69329,6.87737 -0.0349,2.98649 0.92434,3.7745 6.20602,5.09803 l 3.84435,0.96335 9.6409,19.60687 c 5.3025,10.78378 10.44081,20.19335 11.41846,20.91016 1.12379,0.82396 3.72445,1.20239 7.07116,1.02895 l 5.29362,-0.27433 z m 86.23593,19.96753 c 3.17913,-1.62104 4.36262,-3.78593 3.65154,-6.67954 -0.82632,-3.36258 -2.53326,-3.93329 -13.59129,-4.54421 l -9.61719,-0.53132 -0.14028,-20.09304 c -0.10197,-14.60575 -0.46196,-20.29787 -1.31822,-20.84308 -0.64787,-0.41253 -6.2931,-0.76258 -12.54497,-0.77788 -14.0116,-0.0343 -16.97202,1.14724 -17.03893,6.80032 -0.0442,3.73095 2.02219,4.83897 10.29145,5.51849 l 7.4548,0.61259 -0.0861,14.38352 -0.0861,14.38352 -9.95219,0.46796 c -8.99627,0.42301 -10.1298,0.68519 -11.80132,2.7296 -1.01701,1.24391 -1.85214,2.76508 -1.85582,3.3804 -0.0122,2.033 2.8356,5.2463 5.0252,5.67021 1.1845,0.22932 12.75971,0.48159 25.7227,0.56062 17.0188,0.10375 24.21322,-0.18478 25.88682,-1.03816 z m 76.96252,0.0889 c 3.17914,-1.62104 4.36263,-3.78594 3.65155,-6.67954 -0.82633,-3.36258 -2.53326,-3.93329 -13.59129,-4.54421 l -9.6172,-0.53133 -0.0648,-31.56181 c -0.0438,-21.33984 -0.40774,-31.97705 -1.12363,-32.8439 -1.32627,-1.60594 -21.18992,-1.81607 -25.6594,-0.27144 -3.25936,1.12641 -4.5433,3.58838 -3.68752,7.07084 0.71381,2.90472 2.52818,3.63736 10.65183,4.30117 l 6.73097,0.55001 -0.15794,26.36979 -0.15794,26.36979 -9.95219,0.46796 c -8.99628,0.42301 -10.1298,0.68518 -11.80132,2.72959 -1.01701,1.24391 -1.85214,2.76509 -1.85583,3.38041 -0.0122,2.03299 2.83561,5.24629 5.02521,5.67021 1.18449,0.22932 12.7597,0.48159 25.7227,0.56061 17.01879,0.10376 24.21322,-0.18477 25.88681,-1.03815 z M 673.0522,621.17502 c 0.38367,-6.08081 -0.29072,-6.76791 -6.67034,-6.79614 -6.96767,-0.0309 -7.53706,0.43184 -7.57133,6.15225 -0.0165,2.75635 0.2745,5.31725 0.64668,5.69087 0.37218,0.37363 3.50973,0.55705 6.97233,0.4076 l 6.29565,-0.27173 z M 209.2563,732.5011 c -10.05591,-10.47638 -20.77283,-22.63602 -27.44971,-31.14503 l -5.41993,-6.90715 1.39916,-233.60188 1.39916,-233.60188 7.99455,-9.76138 c 9.11986,-11.13538 31.59756,-35.26637 33.40585,-35.86293 0.9621,-0.31739 0.86744,55.94896 -0.46974,279.20218 -0.92106,153.77982 -2.03079,279.59926 -2.46605,279.59876 -0.43526,-5.1e-4 -4.21224,-3.56481 -8.39329,-7.92069 z m 11.08869,-549.03081 c -0.25866,-0.25966 -1.45501,0.58992 -2.65856,1.88797 -16.10425,17.36864 -28.44683,31.27259 -32.52496,36.63947 l -5.02262,6.60983 -1.39077,232.20169 -1.39077,232.20169 3.04946,4.26779 c 4.47105,6.25732 18.10987,22.06698 27.98385,32.43791 l 8.61721,9.05092 1.90372,-277.41258 c 1.04705,-152.57691 1.69209,-277.62503 1.43344,-277.88469 z m -60.91096,485.68534 c -18.63562,-30.15899 -32.93084,-60.99471 -41.47584,-89.46608 -5.71551,-19.04373 -6.905,-23.49543 -9.35488,-35.01095 -16.104814,-75.69966 -9.904134,-150.77396 18.531,-224.36309 10.73788,-27.78925 39.83618,-80.24835 43.31668,-78.09231 1.03256,0.63963 -1.199,433.52989 -2.24868,436.21348 -0.32616,0.83386 -0.93157,1.51571 -1.34534,1.51523 -0.41377,-4.7e-4 -3.75409,-4.8588 -7.42294,-10.79628 z"
       style="fill:#ff9935;fill-opacity:1;stroke-width:0.960469" />
    <path
       id="path76"
       d="m 201.24539,720.70137 c -7.54125,-8.35298 -15.87548,-18.18723 -18.52052,-21.8539 l -4.80917,-6.66667 1.5172,-231.6212 1.5172,-231.62119 6.43328,-8.3788 c 3.5383,-4.60834 12.15792,-14.37881 19.1547,-21.71214 l 12.72141,-13.33333 -1.12561,250.83333 c -0.61909,137.95833 -1.58721,261.79258 -2.15138,275.18723 l -1.02576,24.35389 z"
       style="fill:#666666;fill-opacity:1;stroke:#000000;stroke-width:1.66929" />
  </g>
</svg>
