<?xml version="1.0" encoding="UTF-8" standalone="no"?>
<svg
   xmlns="http://www.w3.org/2000/svg"
   id="svg8"
   version="1.1"
   viewBox="0 0 210 210"
   height="210mm"
   width="210mm">
  <defs id="defs2" />
  <sodipodi:namedview
     showgrid="true"
     borderopacity="1.0"
     bordercolor="#666666"
     pagecolor="#ffffff"
     id="base">
   
  </sodipodi:namedview>
  <metadata
     id="metadata5">
    <rdf:RDF>
      <cc:Work>
        <dc:format>image/svg+xml</dc:format>
        <dc:type />
        <dc:title></dc:title>
      </cc:Work>
    </rdf:RDF>
  </metadata>
  <g id="layer1">
    <path
       transform="scale(0.26458333)"
       d="M 120 40 L 40 120 L 320 400 L 40 680 L 120 760 L 400 480 L 680 760 L 760 680 L 480 400 L 760 120 L 680 40 L 400 320 L 120 40 z "
       style="fill:none;stroke:#000000;stroke-width:0.999999px;stroke-linecap:butt;stroke-linejoin:miter;stroke-opacity:1"
       id="path135" />
    <path
       transform="scale(0.26458333)"
       id="path159"
       d="M 81.428677,718.57154 42.9078,679.9712 182.87154,539.9856 322.83528,400 182.85817,260.00103 42.881063,120.00205 81.452491,81.430626 120.02392,42.859197 260.00114,182.85828 399.97834,322.85736 540.0144,182.84275 680.05046,42.828134 718.57131,81.428466 757.0922,120.02879 617.12846,260.0144 477.16471,400 617.14183,539.99897 757.11894,679.99794 718.54751,718.56937 679.97609,757.1408 539.99886,617.14171 400.02166,477.14263 259.9856,617.15726 119.94956,757.17186 Z"
       style="fill:#000000;stroke:#000000;stroke-width:2.86164;stroke-opacity:0" />
  </g>
</svg>
